<svg width="30" height="30" viewBox="0 0 30 30" fill="none" xmlns="http://www.w3.org/2000/svg">
<path d="M26.92 13.6667C26.3067 8.10671 21.8933 3.69337 16.3333 3.08004V0.333374H13.6667V3.08004C8.10667 3.69337 3.69333 8.10671 3.08 13.6667H0.333332V16.3334H3.08C3.69333 21.8934 8.10667 26.3067 13.6667 26.92V29.6667H16.3333V26.92C21.8933 26.3067 26.3067 21.8934 26.92 16.3334H29.6667V13.6667H26.92ZM15 24.3334C9.84 24.3334 5.66667 20.16 5.66667 15C5.66667 9.84004 9.84 5.66671 15 5.66671C20.16 5.66671 24.3333 9.84004 24.3333 15C24.3333 20.16 20.16 24.3334 15 24.3334Z" fill="black"/>
</svg>
