<svg width="26" height="26" viewBox="0 0 26 26" fill="none" xmlns="http://www.w3.org/2000/svg">
<path d="M22.52 14.2533C22.5733 13.8533 22.6 13.44 22.6 13C22.6 12.5733 22.5733 12.1466 22.5067 11.7466L25.2133 9.63995C25.4533 9.45328 25.52 9.09328 25.3733 8.82662L22.8133 4.39995C22.6533 4.10662 22.32 4.01328 22.0267 4.10662L18.84 5.38662C18.1733 4.87995 17.4667 4.45328 16.68 4.13328L16.2 0.746618C16.1467 0.426618 15.88 0.199951 15.56 0.199951H10.44C10.12 0.199951 9.86666 0.426618 9.81333 0.746618L9.33333 4.13328C8.54667 4.45328 7.82667 4.89328 7.17333 5.38662L3.98667 4.10662C3.69333 3.99995 3.36 4.10662 3.2 4.39995L0.653332 8.82662C0.493332 9.10662 0.546665 9.45328 0.813332 9.63995L3.52 11.7466C3.45333 12.1466 3.4 12.5866 3.4 13C3.4 13.4133 3.42667 13.8533 3.49333 14.2533L0.786665 16.36C0.546665 16.5466 0.479999 16.9066 0.626665 17.1733L3.18667 21.6C3.34667 21.8933 3.68 21.9866 3.97333 21.8933L7.16 20.6133C7.82667 21.1199 8.53333 21.5466 9.32 21.8666L9.8 25.2533C9.86667 25.5733 10.12 25.8 10.44 25.8H15.56C15.88 25.8 16.1467 25.5733 16.1867 25.2533L16.6667 21.8666C17.4533 21.5466 18.1733 21.1199 18.8267 20.6133L22.0133 21.8933C22.3067 22 22.64 21.8933 22.8 21.6L25.36 17.1733C25.52 16.8799 25.4533 16.5466 25.2 16.36L22.52 14.2533ZM13 17.8C10.36 17.8 8.2 15.64 8.2 13C8.2 10.36 10.36 8.19995 13 8.19995C15.64 8.19995 17.8 10.36 17.8 13C17.8 15.64 15.64 17.8 13 17.8Z" fill="black"/>
</svg>
